<svg xmlns="http://www.w3.org/2000/svg" viewBox="0 0 512 512"><defs><style>.cls-2{fill:#fff}.cls-3{fill:#e2e2e2}.cls-6{fill:#3586cb}.cls-9{fill:#e23939}</style></defs><circle cx="256" cy="256" r="256" style="fill:#f7bb38" id="BULINE"/><g id="Icons"><path class="cls-2" d="M489.9 194.85v99.5a17.71 17.71 0 0 1-12.12 16.88 39.06 39.06 0 0 0-24.92 24.92A17.71 17.71 0 0 1 436 348.26H306a21.21 21.21 0 0 1-21.12-19.21c-1.18-12.45-4.88-23.24-10.11-30.91s-12-12.25-19.3-12.25c-14.59 0-27 18.27-29.4 43.16A21.22 21.22 0 0 1 205 348.26H75a17.72 17.72 0 0 1-16.9-12.11 39.06 39.06 0 0 0-24.92-24.92 17.72 17.72 0 0 1-12.11-16.88v-99.5z"/><path class="cls-3" d="M225.32 333A21.2 21.2 0 0 1 205 348.26H75a17.71 17.71 0 0 1-16.9-12.12 39 39 0 0 0-24.92-24.91 17.72 17.72 0 0 1-12.12-16.87v-99.51h10.62v86.62a17.7 17.7 0 0 0 12.11 16.87 39.08 39.08 0 0 1 24.92 24.93 17.72 17.72 0 0 0 16.87 12.11h130a21.19 21.19 0 0 0 9.74-2.38zM453.66 333.93c-.28.73-.56 1.46-.79 2.21A17.72 17.72 0 0 1 436 348.26H306a21.21 21.21 0 0 1-21.12-19.21 79.11 79.11 0 0 0-3.53-17.24 55 55 0 0 0-6.58-13.67c-5.23-7.67-12-12.25-19.3-12.25a19.39 19.39 0 0 0-11.42 3.93c5.49-10.4 13.38-16.81 22-16.81 7.3 0 14.06 4.57 19.3 12.24a54.59 54.59 0 0 1 6.65 13.67 78.52 78.52 0 0 1 3.53 17.24 21.23 21.23 0 0 0 21.12 19.22h130a17.88 17.88 0 0 0 7.01-1.45z"/><rect x="63.02" y="225.59" width="146.93" height="89.85" rx="20.61" style="fill:#366fca"/><path d="M209.89 296.24a20.6 20.6 0 0 1-20.56 19.17H83.63A20.61 20.61 0 0 1 63 294.8v-48.62a20.6 20.6 0 0 1 19.17-20.56 13.83 13.83 0 0 0-.06 1.45v48.61a20.62 20.62 0 0 0 20.62 20.62h105.73a13.56 13.56 0 0 0 1.43-.06z" style="fill:#2e61aa"/><circle class="cls-6" cx="178.85" cy="249.9" r="10.64"/><circle class="cls-6" cx="156.69" cy="249.9" r="7.54"/><rect x="301.02" y="225.59" width="146.93" height="89.85" rx="20.61" style="fill:#db1b1b"/><path d="M447.89 296.24a20.6 20.6 0 0 1-20.56 19.17h-105.7A20.61 20.61 0 0 1 301 294.8v-48.62a20.6 20.6 0 0 1 19.17-20.56 13.83 13.83 0 0 0-.06 1.45v48.61a20.62 20.62 0 0 0 20.62 20.62h105.73a13.56 13.56 0 0 0 1.43-.06z" style="fill:#c11a1a"/><circle class="cls-9" cx="416.85" cy="249.9" r="10.64"/><circle class="cls-9" cx="394.69" cy="249.9" r="7.54"/><path class="cls-2" d="M209.89 132v12.3a15.52 15.52 0 1 1-31 0 6.71 6.71 0 0 0-10.44-5.61l-65.89 43.58-19 12.59H21.07L42 182.27l128.1-77a22 22 0 0 1 18.43-2l1.11.38A29.93 29.93 0 0 1 209.89 132z"/><path class="cls-3" d="M102.52 182.28 83.5 194.86H21.07l20.92-12.58h60.53z"/><path class="cls-2" d="M301 132v12.3a15.52 15.52 0 0 0 31 0 6.74 6.74 0 0 1 6.75-6.74 6.66 6.66 0 0 1 3.68 1.13l65.9 43.58 19 12.59h62.43l-20.92-12.59-128.1-77a22 22 0 0 0-18.43-2l-1.12.38A29.94 29.94 0 0 0 301 132z"/><path class="cls-3" d="m408.36 182.28 19.02 12.58h62.43l-20.92-12.58h-60.53z"/></g></svg>

